<svg id="googlePlus" xmlns="http://www.w3.org/2000/svg" viewBox="0 0 88 88"><defs><style>.cls-1{fill:#c7c9cc;fill-rule:evenodd;}</style></defs><title>Монтажная область 1 копия 2</title><g id="logo_googleg_48dp" data-name="logo googleg 48dp"><path class="cls-1" d="M84.23,36.29H44.8V52.48H67.33A19.26,19.26,0,0,1,59,65.12a25.2,25.2,0,0,1-14.18,4A25.13,25.13,0,0,1,21.38,36,24.94,24.94,0,0,1,44.8,18.69a22.62,22.62,0,0,1,16,6.26l12-12A40.24,40.24,0,0,0,44.8,2a41.86,41.86,0,1,0,0,83.72c11.31,0,20.78-3.74,27.71-10.14C80.42,68.33,85,57.6,85,44.85A48.5,48.5,0,0,0,84.23,36.29Z"/></g></svg>